PathFileType	4	(X/Y/Z)	C:/Users/opensim2020/Desktop/walking_exp_matlab/subject03_walking06_straight_04.trc	
DataRate	CameraRate	NumFrames	NumMarkers	Units	OrigDataRate	OrigDataStartFrame	OrigNumFrames	
100.00	100.00	7	44	mm	100.00	2763	278	
Frame#	Time	LFHD			RFHD			LBHD			RBHD			C7			T10			CLAV			STRN			RBAK			LSHO			LUPA			LELB			LFRM			LWRA			LWRB			LFIN			RSHO			RUPA			RELB			RFRM			RWRA			RWRB			RFIN			LASI			RASI			LPSI			RPSI			LTHI			LKNE			LTIB			LANK			LHEE			LTOE			RTHI			RKNE			RTIB			RANK			RHEE			RTOE			*39			*40			*41			*42			*43			
		X1	Y1	Z1	X2	Y2	Z2	X3	Y3	Z3	X4	Y4	Z4	X5	Y5	Z5	X6	Y6	Z6	X7	Y7	Z7	X8	Y8	Z8	X9	Y9	Z9	X10	Y10	Z10	X11	Y11	Z11	X12	Y12	Z12	X13	Y13	Z13	X14	Y14	Z14	X15	Y15	Z15	X16	Y16	Z16	X17	Y17	Z17	X18	Y18	Z18	X19	Y19	Z19	X20	Y20	Z20	X21	Y21	Z21	X22	Y22	Z22	X23	Y23	Z23	X24	Y24	Z24	X25	Y25	Z25	X26	Y26	Z26	X27	Y27	Z27	X28	Y28	Z28	X29	Y29	Z29	X30	Y30	Z30	X31	Y31	Z31	X32	Y32	Z32	X33	Y33	Z33	X34	Y34	Z34	X35	Y35	Z35	X36	Y36	Z36	X37	Y37	Z37	X38	Y38	Z38	X39	Y39	Z39	X40	Y40	Z40	X41	Y41	Z41	X42	Y42	Z42	X43	Y43	Z43	X44	Y44	Z44	

35	0.340	-927.11371	974.33472	1614.09619	-1059.85437	982.06122	1620.69653	-924.55286	1105.33301	1579.17798	-1055.45435	1108.25891	1585.08521	-987.88599	1146.92139	1420.94275	-995.58936	1194.18042	1108.90674	-988.66168	1026.86255	1340.08289	-983.76569	990.64215	1173.15540	-1088.23108	1204.32703	1248.64026	-833.05011	1071.45276	1378.13623	-766.25244	1077.93884	1179.88513	-760.23175	1064.49097	1056.44763	-767.14160	1032.10852	929.71228	-801.65857	1010.77075	813.73535	-748.48395	1029.21106	817.02875	-762.62274	1015.84253	733.50775	-1147.85217	1069.29248	1366.71863	-1226.28711	1054.74548	1147.38916	-1242.63794	1028.54272	1038.29346	-1247.57300	996.66925	905.38043	-1213.52490	957.63635	813.40814	-1259.20154	985.95032	806.31915	-1249.68481	955.18994	738.23151	-879.56128	1036.14819	937.41302	-1116.74268	1027.60876	944.30548	-932.78302	1197.15515	959.56519	-1081.26013	1189.40967	977.19427	-831.75189	1040.18726	635.65186	-853.02356	995.69165	461.78955	-860.54272	1131.77393	318.87106	-905.13281	1265.04517	160.99181	-946.24219	1317.61377	154.71503	-922.44873	1167.07788	51.17664	-1158.37036	1087.50513	650.18842	-1122.55615	1076.50427	469.43414	-1126.56213	1125.21729	284.59418	-1076.09509	1155.56396	69.99847	-1025.87781	1199.08496	38.85223	-1063.14954	1012.96912	30.79462	-971.75659	1054.20508	1683.73303												 
36	0.350	-927.54797	964.81537	1613.67261	-1060.23608	972.33527	1620.24487	-925.07245	1096.00500	1579.49548	-1055.98315	1098.70190	1585.38489	-988.74451	1138.20313	1421.06506	-996.67590	1185.58838	1109.01221	-989.04431	1018.18707	1340.10425	-984.43188	982.09448	1173.17554	-1089.80908	1195.09351	1248.96472	-833.56317	1063.59155	1378.07324	-766.58136	1072.66833	1179.79968	-760.25635	1060.68103	1056.19104	-767.00122	1029.15210	929.29425	-802.13501	1009.44604	813.05121	-748.58966	1027.25476	816.52698	-762.30707	1013.48962	733.26685	-1148.30066	1059.84424	1367.01843	-1227.20532	1042.89429	1148.31189	-1243.67456	1014.89294	1039.71594	-1248.64624	980.79932	907.39038	-1214.62415	940.30786	816.02124	-1260.36633	968.35626	808.59344	-1251.17065	936.30566	741.25720	-880.55322	1027.67517	937.84399	-1117.46814	1018.99432	943.77240	-933.47113	1188.47510	959.97681	-1082.06641	1180.73560	977.25940	-833.00195	1028.07837	637.12018	-854.91156	979.91803	463.96045	-862.41211	1111.06689	316.16870	-907.13379	1238.87085	153.65643	-948.06329	1291.40222	145.08406	-925.43939	1135.77344	48.74346	-1158.63489	1080.93750	649.91125	-1122.78027	1072.10315	469.10468	-1126.59961	1122.66455	284.70499	-1076.08826	1155.20898	70.48135	-1025.72107	1199.00073	39.36443	-1063.17761	1012.84814	30.77339	-972.04510	1044.11841	1683.77148												 
37	0.360	-927.77936	955.41876	1613.21826	-1060.53540	962.65320	1619.78088	-925.58026	1086.90649	1579.81946	-1056.45776	1089.17432	1585.64783	-989.55786	1129.47485	1421.08240	-997.74268	1177.09851	1109.03809	-989.48370	1009.51978	1340.03772	-985.01703	973.57098	1173.10852	-1091.39966	1185.87585	1249.20532	-834.02081	1055.67432	1377.96460	-766.70197	1067.33301	1179.64673	-760.15906	1056.83008	1055.89844	-766.91754	1026.13220	928.82190	-802.05243	1006.90991	812.55048	-748.66284	1025.67017	816.14862	-762.14319	1011.01172	732.94385	-1148.67578	1050.54834	1367.44434	-1228.15747	1031.26782	1149.18506	-1244.74207	1001.50128	1041.04431	-1249.66785	965.08575	909.38971	-1215.62830	923.06500	818.71912	-1261.34558	951.06689	810.88849	-1252.55029	917.53827	744.29980	-881.38501	1019.02338	938.25385	-1118.06360	1010.27936	943.24316	-934.01385	1179.79553	960.24316	-1082.73853	1172.07300	977.31213	-834.02032	1016.05658	638.38043	-856.84229	964.54846	466.08054	-864.29218	1090.41919	313.35928	-909.12830	1211.93665	145.84448	-949.95984	1264.16187	134.72633	-927.78149	1103.56885	46.85179	-1158.84436	1074.60156	649.58929	-1123.01819	1067.78308	468.76935	-1126.49670	1120.10779	284.84787	-1076.02490	1154.87207	70.94849	-1025.73291	1198.83496	40.22660	-1063.20435	1012.72852	30.77437	-972.47137	1034.19434	1683.79810												 
38	0.370	-928.03137	946.01581	1612.63159	-1060.73706	953.05243	1619.31396	-925.97687	1077.76184	1579.99207	-1056.88599	1079.77087	1585.85791	-990.21112	1120.70190	1421.01599	-998.75293	1168.27271	1108.93042	-989.77368	1000.89166	1339.94202	-985.58014	964.93542	1173.01575	-1092.87842	1176.62842	1249.29785	-834.42035	1047.74646	1377.74548	-766.89386	1061.88464	1179.31262	-760.05560	1052.84155	1055.51233	-766.70203	1022.95776	928.22363	-801.97156	1004.23126	812.07092	-748.77051	1023.47302	815.50244	-762.14355	1008.05768	732.57367	-1149.01123	1041.23560	1367.69690	-1228.97302	1019.69165	1149.90881	-1245.82458	988.35950	1042.32581	-1250.62207	949.52722	911.31451	-1216.59180	905.95258	821.39038	-1262.31946	933.71960	813.14282	-1253.69678	898.98779	747.27124	-882.12390	1010.53186	938.54883	-1118.13135	1000.84961	943.00775	-934.38892	1171.14551	960.36572	-1083.30066	1163.46326	977.28998	-834.93304	1004.31836	639.44983	-858.48364	949.87372	468.27676	-866.11792	1069.92627	310.42270	-911.05042	1184.37854	137.76141	-951.77325	1236.51477	124.52988	-929.84839	1070.89685	44.78584	-1159.02771	1068.36243	649.18286	-1123.23267	1063.50024	468.42548	-1126.45032	1117.42090	284.90308	-1075.91211	1154.47998	71.41647	-1025.82910	1198.75513	41.16742	-1063.26233	1012.65161	30.73687	-973.05676	1024.40247	1683.91748												 
39	0.380	-928.16956	936.67236	1611.99927	-1060.93677	943.48615	1618.73572	-926.28796	1068.78821	1580.08997	-1057.26172	1070.38904	1586.05273	-990.82092	1112.04700	1420.98206	-999.73401	1159.72595	1108.79651	-990.10370	992.20190	1339.77734	-985.94690	956.36530	1172.77979	-1094.21265	1167.40918	1249.21497	-834.67578	1039.66541	1377.36719	-766.90125	1056.15259	1178.93677	-759.86877	1048.76978	1055.01343	-766.13971	1020.19226	927.95563	-801.80109	1001.36163	811.50366	-748.92230	1021.20746	814.83746	-761.95465	1005.41986	732.21991	-1149.21082	1031.95886	1367.70496	-1229.82947	1008.28369	1150.56970	-1246.85437	975.36774	1043.49817	-1251.56238	934.21552	913.16321	-1217.40430	888.97131	823.95642	-1263.07983	916.62701	815.30621	-1254.64233	880.61871	750.17029	-882.78699	1001.96600	938.58246	-1118.65039	993.87231	942.62854	-934.74084	1162.49402	960.33295	-1083.72168	1154.87781	977.17865	-835.72833	992.71387	640.50391	-860.34631	935.74750	470.23737	-867.94305	1049.61926	307.42728	-912.83728	1156.21631	129.54384	-953.63861	1207.61304	113.67564	-931.54608	1037.94629	42.78945	-1159.25452	1062.23792	648.74280	-1123.34790	1059.15442	468.00385	-1126.38586	1114.82275	285.01871	-1075.87524	1154.27576	72.05853	-1025.69934	1198.12939	41.33295	-1063.27466	1012.51172	30.68802	-973.14136	1014.55243	1683.62134												 
40	0.390	-928.27161	927.36090	1611.27246	-1061.02393	933.99799	1618.15344	-926.54474	1059.77734	1580.06519	-1057.56702	1061.09668	1586.10010	-991.29028	1103.20776	1420.65393	-1000.59198	1151.03003	1108.51758	-990.28168	983.53778	1339.44702	-986.24036	947.64294	1172.58545	-1095.39014	1158.20288	1248.99390	-834.88214	1031.68103	1376.95117	-767.02826	1050.22864	1178.51074	-759.66705	1044.40662	1054.49390	-765.98474	1016.91309	927.25604	-801.69470	998.41846	810.91364	-749.06433	1018.82562	814.08691	-762.07104	1002.47449	731.76752	-1149.50317	1022.77625	1367.76318	-1230.61218	996.91144	1151.15051	-1247.81531	962.56738	1044.58594	-1252.37500	919.07635	915.01526	-1218.21631	872.22693	826.82452	-1263.73096	899.82697	817.44757	-1255.39111	862.41870	753.09021	-883.37097	993.37653	938.63934	-1119.10266	985.20239	942.12518	-935.01550	1153.88550	960.20105	-1084.08887	1146.35083	976.95483	-836.38580	981.32318	641.30286	-862.28552	922.28528	471.92172	-869.66211	1029.53894	304.37787	-914.58093	1127.21130	121.31188	-955.33337	1177.72937	102.60091	-932.91785	1004.61383	41.03092	-1159.47839	1056.15344	648.26483	-1123.43713	1054.81799	467.58688	-1126.29749	1112.26404	285.10956	-1075.75208	1153.86182	72.51340	-1025.56030	1197.96960	42.12161	-1063.29456	1012.43579	30.71201	-973.36389	1004.81036	1683.54370												 
41	0.400	-928.23944	918.14972	1610.51697	-1061.04639	924.54858	1617.49890	-926.75964	1050.71204	1579.87012	-1057.74500	1051.74536	1585.97607	-991.75714	1094.47583	1420.32886	-1001.29596	1142.28748	1108.11707	-990.46771	974.83093	1339.06250	-986.50891	938.95258	1172.26331	-1096.41394	1149.03345	1248.65027	-835.05847	1023.50580	1376.30334	-767.07019	1044.06970	1177.97437	-759.51361	1039.96082	1053.99500	-765.77838	1013.44104	926.47687	-801.71509	995.49835	810.25970	-749.23285	1016.19116	813.33038	-762.11261	999.48547	731.25665	-1149.66138	1013.58392	1367.61377	-1231.26746	985.55414	1151.57861	-1248.73474	949.85071	1045.59521	-1253.05347	904.07410	916.77057	-1218.79236	855.64807	829.53296	-1264.25024	883.18646	819.54053	-1255.94983	844.55261	756.02887	-883.89563	984.60492	938.56921	-1119.50916	976.81451	941.60944	-935.27124	1145.32288	959.91675	-1084.39685	1137.81653	976.57715	-836.83887	970.08044	641.94440	-864.04028	909.47253	473.37808	-871.27637	1009.64044	301.21124	-916.05975	1097.35803	113.28043	-957.11340	1147.46021	92.04197	-934.04010	971.25287	39.43995	-1159.65833	1050.05835	647.75281	-1123.45715	1050.49683	467.17606	-1126.16272	1109.70154	285.25992	-1075.71167	1153.38245	72.94386	-1025.41309	1197.80139	43.03455	-1063.34033	1012.30762	30.75174	-973.10809	995.06683	1683.12732												 
